{"title":"Havana Brown - You'll Be Mine {M4A+MP4}(1080p)x264[VX][P2PDL]","uid":7687870,"size":49508299,"categoryP":"video","categoryS":"music_videos","magnet":"?xt=urn:btih:6d08b60685ecfe3456b6a9f4d1741fd068ce554d&amp;dn=Havana+Brown+-+You%27ll+Be+Mine+%7BM4A%2BMP4%7D%281080p%29x264%5BVX%5D%5BP2PDL%5D&amp;tr=udp%3A%2F%2Ftracker.openbittorrent.com%3A80&amp;tr=udp%3A%2F%2Fopen.demonii.com%3A1337&amp;tr=udp%3A%2F%2Ftracker.coppersurfer.tk%3A6969&amp;tr=udp%3A%2F%2Fexodus.desync.com%3A6969","seeders":1,"leechers":0,"uploader":"Vitamin_X","files":-1,"time":1349013110,"description":"Music video by Havana Brown performing You'll Be Mine. (C) 2012 Universal Music Australia Pty Ltd.\n\n                            1080p Full HD MP4 Video\n                                     +\n                             96 kbps/VBR M4A Audio\n\nCover: \n &lt;a href=&quot;\nhttp://www.shotpix.com/images/52701287585638258520.jpg&quot; rel=&quot;nofollow&quot; target=&quot;_NEW&quot;&gt;\nhttp://www.shotpix.com/images/52701287585638258520.jpg&lt;/a&gt;\n\n\nSing Along!\nEnglish subtitles included.\n\nGeneral\nFormat                         : MPEG-4\nFormat profile                 : Base Media / Version 2\nCodec ID                       : mp42\nFile size                      : 43.0 MiB\nDuration                       : 3mn 55s\nOverall bit rate mode          : Variable\nOverall bit rate               : 1 530 Kbps\n\n\nVideo\nID                             : 1\nFormat                         : AVC\nFormat/Info                    : Advanced Video Codec\nDuration                       : 3mn 55s\nBit rate mode                  : Variable\nBit rate                       : 1 400 Kbps\nWidth                          : 1 920 pixels\nHeight                         : 1 080 pixels\nDisplay aspect ratio           : 16:9\nFrame rate mode                : Variable\nFrame rate                     : 23.976 fps\nStream size                    : 39.5 MiB (92%)\n\n\nAudio\nID                             : 2\nFormat                         : AAC\nFormat/Info                    : Advanced Audio Codec\nFormat profile                 : LC\nCodec ID                       : 40\nDuration                       : 3mn 55s\nBit rate mode                  : Variable\nBit rate                       : 119 Kbps\nMaximum bit rate               : 195 Kbps\nChannel(s)                     : 2 channels\nChannel positions              : Front: L R\nSampling rate                  : 48.0 KHz\nStream size                    : 3.36 MiB (8%)\n\nSubtitles                      : Yes (English)\n\n\n\n\n\nScreens:\n\n &lt;a href=&quot;\nhttp://www.shotpix.com/images/55415838314407072119.jpg&quot; rel=&quot;nofollow&quot; target=&quot;_NEW&quot;&gt;\nhttp://www.shotpix.com/images/55415838314407072119.jpg&lt;/a&gt; &lt;a href=&quot;\nhttp://www.shotpix.com/images/09398108381548656610.jpg&quot; rel=&quot;nofollow&quot; target=&quot;_NEW&quot;&gt;\nhttp://www.shotpix.com/images/09398108381548656610.jpg&lt;/a&gt;\n\nThumbs:\n &lt;a href=&quot;\nhttp://www.shotpix.com/images/12638257935906548035.jpg&quot; rel=&quot;nofollow&quot; target=&quot;_NEW&quot;&gt;\nhttp://www.shotpix.com/images/12638257935906548035.jpg&lt;/a&gt;\n\n\n------------------------------------------------------------------------\n\nNotes:\n\n* Best played on VLC Media Player.\n* Install shark007 codecs in case of any kind of problem in playback (For non-VLC Media Player users).\n* Alternatively, install Core AVC codecs, the fastest decoder that there is coupled with Community Center Codec Pack and play on Windows Media Player Classic.\n* Read NFO\n* Help in seeding this torrent as much as you can. \n\n\n\nGreets to: srkfan, VYTO, MgB, staff members at ExtraTorrent, TPB,KAT, 1337x, PublicHD, Ahashare,\nSilverTorrent, TorrentMafia, P2PDL, and all others\n\n\nEncoder Notes: Looking For Early Access To Anything You Can Provide DVDScr, R5, DVDRips, BluRay, Direct Audio, Early Music\nReleases, Seedboxes, Links, Dedicated Servers anything u can provide, Advance / Promo CDs/DVDs. If You Got anything to\noffer contact me at &quot;&lt;a class=&quot;__cf_email__&quot; href=&quot;/cdn-cgi/l/email-protection&quot; data-cfemail=&quot;64070b0a1005071024100d0a1d094a0111&quot;&gt;[email&amp;#160;protected]&lt;/a&gt;&lt;script cf-hash='f9e31' type=&quot;text/javascript&quot;&gt;\n/* &lt;![CDATA[ */!function(){try{var t=&quot;currentScript&quot;in document?document.currentScript:function(){for(var t=document.getElementsByTagName(&quot;script&quot;),e=t.length;e--;)if(t[e].getAttribute(&quot;cf-hash&quot;))return t[e]}();if(t&amp;&amp;t.previousSibling){var e,r,n,i,c=t.previousSibling,a=c.getAttribute(&quot;data-cfemail&quot;);if(a){for(e=&quot;&quot;,r=parseInt(a.substr(0,2),16),n=2;a.length-n;n+=2)i=parseInt(a.substr(n,2),16)^r,e+=String.fromCharCode(i);e=document.createTextNode(e),c.parentNode.replaceChild(e,c)}}}catch(u){}}();/* ]]&gt; */&lt;/script&gt;&quot;\n\n                                  Enjoy!","torrent":{"xt":"urn:btih:6d08b60685ecfe3456b6a9f4d1741fd068ce554d","amp;dn":"Havana+Brown+-+You%27ll+Be+Mine+%7BM4A%2BMP4%7D%281080p%29x264%5BVX%5D%5BP2PDL%5D","amp;tr":["udp%3A%2F%2Ftracker.openbittorrent.com%3A80","udp%3A%2F%2Fopen.demonii.com%3A1337","udp%3A%2F%2Ftracker.coppersurfer.tk%3A6969","udp%3A%2F%2Fexodus.desync.com%3A6969"],"infoHash":"6d08b60685ecfe3456b6a9f4d1741fd068ce554d","infoHashBuffer":{"type":"Buffer","data":[109,8,182,6,133,236,254,52,86,182,169,244,209,116,31,208,104,206,85,77]},"announce":[],"urlList":[]}}